sfk_cyclingleg_states
version=1
nRows=12
nColumns=53
inDegrees=yes

# SIMM Motion File Header:
name sfk_cyclingleg_states
datacolumns 53
datarows 12
otherdata 1
range 0.45136455 0.45714978
endheader
time	/jointset/bb/crank_angle/value	/jointset/bb/crank_angle/speed	/jointset/spindle/pedal_angle_r/value	/jointset/spindle/pedal_angle_r/speed	/jointset/ground_pelvis/pelvis_tilt/value	/jointset/ground_pelvis/pelvis_tilt/speed	/jointset/ground_pelvis/pelvis_list/value	/jointset/ground_pelvis/pelvis_list/speed	/jointset/ground_pelvis/pelvis_rotation/value	/jointset/ground_pelvis/pelvis_rotation/speed	/jointset/ground_pelvis/pelvis_tx/value	/jointset/ground_pelvis/pelvis_tx/speed	/jointset/ground_pelvis/pelvis_ty/value	/jointset/ground_pelvis/pelvis_ty/speed	/jointset/ground_pelvis/pelvis_tz/value	/jointset/ground_pelvis/pelvis_tz/speed	/jointset/hip_r/hip_angle_r/value	/jointset/hip_r/hip_angle_r/speed	/jointset/hip_r/hip_adduction_r/value	/jointset/hip_r/hip_adduction_r/speed	/jointset/hip_r/hip_rotation_r/value	/jointset/hip_r/hip_rotation_r/speed	/jointset/knee_r/knee_angle_r/value	/jointset/knee_r/knee_angle_r/speed	/jointset/knee_r/tib_tx_r/value	/jointset/knee_r/tib_tx_r/speed	/jointset/knee_r/tib_ty_r/value	/jointset/knee_r/tib_ty_r/speed	/jointset/tib_pat_r/pat_angle_r/value	/jointset/tib_pat_r/pat_angle_r/speed	/jointset/tib_pat_r/pat_tx_r/value	/jointset/tib_pat_r/pat_tx_r/speed	/jointset/tib_pat_r/pat_ty_r/value	/jointset/tib_pat_r/pat_ty_r/speed	/jointset/ankle_r/ankle_angle_r/value	/jointset/ankle_r/ankle_angle_r/speed	/jointset/subtalar_r/subtalar_angle_r/value	/jointset/subtalar_r/subtalar_angle_r/speed	/jointset/mtp_r/mtp_angle_r/value	/jointset/mtp_r/mtp_angle_r/speed	/forceset/bifemlh_r/activation	/forceset/bifemlh_r/fiber_length	/forceset/bifemsh_r/activation	/forceset/bifemsh_r/fiber_length	/forceset/glut_max2_r/activation	/forceset/glut_max2_r/fiber_length	/forceset/vas_int_r/activation	/forceset/vas_int_r/fiber_length	/forceset/med_gas_r/activation	/forceset/med_gas_r/fiber_length	/forceset/tib_ant_r/activation	/forceset/tib_ant_r/fiber_length
      0.45136455	   -226.85243438	   -480.13863232	    216.88456089	    308.44423618	      0.00000000	      0.00000000	     -0.00000000	     -0.00000000	      0.00000000	      0.00000000	      0.00000000	      0.00000000	     -0.00000000	     -0.00000000	     -0.00000000	     -0.00000000	     47.67928082	     98.62747189	      4.34993094	     -1.08974489	     -0.72281901	    -21.34909153	    -78.99558580	   -281.38899187	      0.00488697	     -0.01663814	     -0.48214631	     -0.09575849	     17.54476804	      0.28542174	      0.03675684	     -0.09707932	     -0.02247162	     -0.00030063	     21.82076257	     12.10621222	     -0.00000000	     -0.00000000	      0.00000000	     -0.00000000	     -0.03267109	      0.11589403	     -0.03267109	      0.15650520	     -0.03267109	      0.13591078	     -0.03267109	      0.14176847	      0.05000000	      0.10000000	      0.05000000	      0.10000000
      0.45189048	   -227.10495367	   -480.13863232	    217.04691138	    308.94067081	      0.00000000	      0.00000000	     -0.00000000	     -0.00000000	      0.00000000	      0.00000000	      0.00000000	      0.00000000	     -0.00000000	     -0.00000000	     -0.00000000	     -0.00000000	     47.73122559	     98.90738901	      4.34935547	     -1.09862810	     -0.73404789	    -21.35193196	    -79.14357860	   -281.39567268	      0.00487815	     -0.01691424	     -0.48219668	     -0.09580382	     17.54491722	      0.28195706	      0.03670575	     -0.09721225	     -0.02247182	     -0.00046318	     21.82718940	     12.33365519	     -0.00000000	     -0.00000000	      0.00000000	     -0.00000000	     -0.03273881	      0.11588247	     -0.03273881	      0.15643617	     -0.03273881	      0.13594719	     -0.03273881	      0.14184799	      0.05000000	      0.10000000	      0.05000000	      0.10000000
      0.45241641	   -227.35747296	   -480.13863232	    217.20952368	    309.43986850	      0.00000000	      0.00000000	     -0.00000000	     -0.00000000	      0.00000000	      0.00000000	      0.00000000	      0.00000000	     -0.00000000	     -0.00000000	     -0.00000000	     -0.00000000	     47.78331746	     99.18688055	      4.34877534	     -1.10749706	     -0.74527824	    -21.35472903	    -79.29157406	   -281.39913712	      0.00486918	     -0.01719014	     -0.48224708	     -0.09584756	     17.54506473	      0.27909452	      0.03665459	     -0.09734445	     -0.02247211	     -0.00062696	     21.83373584	     12.56106501	     -0.00000000	     -0.00000000	      0.00000000	     -0.00000000	     -0.03280652	      0.11587122	     -0.03280652	      0.15636729	     -0.03280652	      0.13598368	     -0.03280652	      0.14194220	      0.05000000	      0.10000000	      0.05000000	      0.10000000
      0.45294234	   -227.60999225	   -480.13863232	    217.37239925	    309.94182376	      0.00000000	      0.00000000	     -0.00000000	     -0.00000000	      0.00000000	      0.00000000	      0.00000000	      0.00000000	     -0.00000000	     -0.00000000	     -0.00000000	     -0.00000000	     47.83555622	     99.46595466	      4.34819054	     -1.11635138	     -0.75651006	    -21.35748326	    -79.43957051	   -281.39939574	      0.00486007	     -0.01746583	     -0.48229750	     -0.09588970	     17.54521089	      0.27683430	      0.03660336	     -0.09747592	     -0.02247248	     -0.00079197	     21.84040188	     12.78843852	     -0.00000000	     -0.00000000	      0.00000000	     -0.00000000	     -0.03287423	      0.11586028	     -0.03287423	      0.15629856	     -0.03287423	      0.13602027	     -0.03287423	      0.14202508	      0.05000000	      0.10000000	      0.05000000	      0.10000000
      0.45346827	   -227.86251154	   -480.13863232	    217.53553954	    310.44653120	      0.00000000	      0.00000000	     -0.00000000	     -0.00000000	      0.00000000	      0.00000000	      0.00000000	      0.00000000	     -0.00000000	     -0.00000000	     -0.00000000	     -0.00000000	     47.88794164	     99.74461940	      4.34760110	     -1.12519065	     -0.76774332	    -21.36019514	    -79.58756625	   -281.39645887	      0.00485081	     -0.01774130	     -0.48234794	     -0.09593025	     17.54535603	      0.27517653	      0.03655206	     -0.09760664	     -0.02247294	     -0.00095821	     21.84718748	     13.01577260	     -0.00000000	     -0.00000000	      0.00000000	     -0.00000000	     -0.03294195	      0.11584965	     -0.03294195	      0.15622998	     -0.03294195	      0.13605694	     -0.03294195	      0.14211788	      0.05000000	      0.10000000	      0.05000000	      0.10000000
      0.45399420	   -228.11503083	   -480.13863232	    217.69894600	    310.95398555	      0.00000000	      0.00000000	     -0.00000000	     -0.00000000	      0.00000000	      0.00000000	      0.00000000	      0.00000000	     -0.00000000	     -0.00000000	     -0.00000000	     -0.00000000	     47.94047351	    100.02288269	      4.34700700	     -1.13401447	     -0.77897799	    -21.36286514	    -79.73555961	   -281.39033662	      0.00484141	     -0.01801654	     -0.48239840	     -0.09596921	     17.54550044	      0.27412125	      0.03650069	     -0.09773663	     -0.02247349	     -0.00112566	     21.85409264	     13.24306409	     -0.00000000	     -0.00000000	      0.00000000	     -0.00000000	     -0.03300966	      0.11583933	     -0.03300966	      0.15616155	     -0.03300966	      0.13609370	     -0.03300966	      0.14219682	      0.05000000	      0.10000000	      0.05000000	      0.10000000
      0.45452013	   -228.36755012	   -480.13863232	    217.86262006	    311.46418165	      0.00000000	      0.00000000	     -0.00000000	     -0.00000000	      0.00000000	      0.00000000	      0.00000000	      0.00000000	     -0.00000000	     -0.00000000	     -0.00000000	     -0.00000000	     47.99315163	    100.30075232	      4.34640827	     -1.14282243	     -0.79021405	    -21.36549368	    -79.88354891	   -281.38103889	      0.00483186	     -0.01829154	     -0.48244889	     -0.09600659	     17.54564447	      0.27366843	      0.03644925	     -0.09786588	     -0.02247413	     -0.00129432	     21.86111732	     13.47030990	     -0.00000000	     -0.00000000	      0.00000000	     -0.00000000	     -0.03307738	      0.11582932	     -0.03307738	      0.15609327	     -0.03307738	      0.13613055	     -0.03307738	      0.14229025	      0.05000000	      0.10000000	      0.05000000	      0.10000000
      0.45504606	   -228.62006941	   -480.13863232	    218.02656317	    311.97711436	      0.00000000	      0.00000000	     -0.00000000	     -0.00000000	      0.00000000	      0.00000000	      0.00000000	      0.00000000	     -0.00000000	     -0.00000000	     -0.00000000	     -0.00000000	     48.04597579	    100.57823776	      4.34580492	     -1.15161417	     -0.80145149	    -21.36808132	    -80.03153249	   -281.36857717	      0.00482217	     -0.01856630	     -0.48249939	     -0.09604238	     17.54578841	      0.27381799	      0.03639775	     -0.09799437	     -0.02247485	     -0.00146409	     21.86826151	     13.69750688	     -0.00000000	     -0.00000000	      0.00000000	     -0.00000000	     -0.03314509	      0.11581963	     -0.03314509	      0.15602515	     -0.03314509	      0.13616749	     -0.03314509	      0.14237206	      0.05000000	      0.10000000	      0.05000000	      0.10000000
      0.45557199	   -228.87258870	   -480.13863232	    218.19077676	    312.49277749	      0.00000000	      0.00000000	     -0.00000000	     -0.00000000	      0.00000000	      0.00000000	      0.00000000	      0.00000000	     -0.00000000	     -0.00000000	     -0.00000000	     -0.00000000	     48.09894579	    100.85537838	      4.34519694	     -1.16038979	     -0.81269027	    -21.37063092	    -80.17950869	   -281.35299366	      0.00481233	     -0.01884106	     -0.48254991	     -0.09607659	     17.54593259	      0.27456980	      0.03634618	     -0.09812207	     -0.02247567	     -0.00163345	     21.87552517	     13.92465171	     -0.00000000	     -0.00000000	      0.00000000	     -0.00000000	     -0.03321280	      0.11581025	     -0.03321280	      0.15595717	     -0.03321280	      0.13620452	     -0.03321280	      0.14246425	      0.05000000	      0.10000000	      0.05000000	      0.10000000
      0.45609792	   -229.12510799	   -480.13863232	    218.35526227	    313.01116557	      0.00000000	      0.00000000	     -0.00000000	     -0.00000000	      0.00000000	      0.00000000	      0.00000000	      0.00000000	     -0.00000000	     -0.00000000	     -0.00000000	     -0.00000000	     48.15206146	    101.13219751	      4.34458435	     -1.16914917	     -0.82393039	    -21.37314406	    -80.32747588	   -281.33431397	      0.00480235	     -0.01911596	     -0.48260045	     -0.09610924	     17.54607733	      0.27592366	      0.03629454	     -0.09824895	     -0.02247657	     -0.00180164	     21.88290828	     14.15174116	     -0.00000000	     -0.00000000	      0.00000000	     -0.00000000	     -0.03328052	      0.11580118	     -0.03328052	      0.15588936	     -0.03328052	      0.13624163	     -0.03328052	      0.14254244	      0.05000000	      0.10000000	      0.05000000	      0.10000000
      0.45662385	   -229.37762729	   -480.13863232	    218.52002113	    313.53227381	      0.00000000	      0.00000000	     -0.00000000	     -0.00000000	      0.00000000	      0.00000000	      0.00000000	      0.00000000	     -0.00000000	     -0.00000000	     -0.00000000	     -0.00000000	     48.20532264	    101.40870245	      4.34396716	     -1.17789196	     -0.83517182	    -21.37562107	    -80.47543244	   -281.31254710	      0.00479222	     -0.01939098	     -0.48265100	     -0.09614032	     17.54622293	      0.27787926	      0.03624283	     -0.09837500	     -0.02247756	     -0.00196864	     21.89041081	     14.37877215	     -0.00000000	     -0.00000000	      0.00000000	     -0.00000000	     -0.03334823	      0.11579242	     -0.03334823	      0.15582170	     -0.03334823	      0.13627883	     -0.03334823	      0.14263487	      0.05000000	      0.10000000	      0.05000000	      0.10000000
      0.45714978	   -229.63014658	   -480.13863232	    218.68505478	    314.05609754	      0.00000000	      0.00000000	     -0.00000000	     -0.00000000	      0.00000000	      0.00000000	      0.00000000	      0.00000000	     -0.00000000	     -0.00000000	     -0.00000000	     -0.00000000	     48.25872916	    101.68490034	      4.34334538	     -1.18661778	     -0.84641454	    -21.37806224	    -80.62337673	   -281.28770186	      0.00478195	     -0.01966610	     -0.48270157	     -0.09616984	     17.54636972	      0.28043625	      0.03619106	     -0.09850023	     -0.02247864	     -0.00213445	     21.89803272	     14.60574157	     -0.00000000	     -0.00000000	      0.00000000	     -0.00000000	     -0.03341594	      0.11578398	     -0.03341594	      0.15575420	     -0.03341594	      0.13631611	     -0.03341594	      0.14271631	      0.05000000	      0.10000000	      0.05000000	      0.10000000
